# xmcd CD database file
#
# Track frame offsets:
#	150
#	14379
#	28412
#	41910
#	55383
#	69023
#	83286
#	96452
#	108652
#	121137
#	133908
#	150136
#	167074
#	183588
#	199201
#	213361
#	229259
#	242037
#	254895
#	268592
#
# Disc length: 3770 seconds
#
# Revision: 0
# Processed by: cddbd v1.4PL0 Copyright (c) Steve Scherf et al.
# Submitted via: CDex 1.50beta9
#
DISCID=200eb814
DTITLE=John Lee Hooker - Boogie Chillen - The Essential Recordings of John Lee Hooker
DYEAR=2000
DGENRE=Blues
TTITLE0=Boogie Chillen
TTITLE1=Sally Mae
TTITLE2=Drifting From Door to Door
TTITLE3=Crawlin' King Snake
TTITLE4=Hobo Blues
TTITLE5=Whistlin' and Moanin' Blues
TTITLE6=Hoogie Boogie
TTITLE7=Burnin' Hell
TTITLE8=Miss Sadie Mae
TTITLE9=Weeping Willow
TTITLE10=Low Down Midnite Boogie
TTITLE11=Goin' Mad Blues
TTITLE12=Helpless Blues
TTITLE13=Landing Blues
TTITLE14=Stomp Boogie
TTITLE15=Black Man Blues
TTITLE16=Nightmare Blues
TTITLE17=Devil's Jump
TTITLE18=I'm Gonna Kill That Woman
TTITLE19=The Numbers
EXTD=YEAR: 2000
EXTT0=
EXTT1=
EXTT2=
EXTT3=
EXTT4=
EXTT5=
EXTT6=
EXTT7=
EXTT8=
EXTT9=
EXTT10=
EXTT11=
EXTT12=
EXTT13=
EXTT14=
EXTT15=
EXTT16=
EXTT17=
EXTT18=
EXTT19=
PLAYORDER=
